<svg
  xmlns="http://www.w3.org/2000/svg"
  width="24"
  height="24"
  fill="none"
  viewBox="0 0 24 24"
>
  <path
    fill="#2C2C2C"
    d="M12 3c-4.962 0-9 4.04-9 9 0 4.962 4.038 9 9 9s9-4.038 9-9c0-4.961-4.038-9-9-9Zm0 1.5a7.49 7.49 0 0 1 7.5 7.5 7.482 7.482 0 0 1-6.384 7.41v-5.223h2.136l.335-2.17h-2.47v-1.184c0-.901.295-1.7 1.137-1.7h1.354V7.24c-.238-.033-.741-.103-1.692-.103-1.986 0-3.15 1.048-3.15 3.438v1.443h-2.04v2.17h2.042v5.202A7.482 7.482 0 0 1 4.5 12 7.49 7.49 0 0 1 12 4.5Z"
  />
</svg>
