<svg
  xmlns="http://www.w3.org/2000/svg"
  width="24"
  height="24"
  fill="none"
  viewBox="0 0 24 24"
>
  <path
    fill="#2C2C2C"
    d="M8.602 3.75C5.938 3.75 3.75 5.935 3.75 8.6v6.797c0 2.663 2.186 4.852 4.852 4.852h6.796c2.663 0 4.852-2.186 4.852-4.852V8.601c0-2.663-2.186-4.851-4.852-4.851H8.602Zm0 1.5h6.796A3.347 3.347 0 0 1 18.75 8.6v6.797a3.347 3.347 0 0 1-3.352 3.352H8.602a3.347 3.347 0 0 1-3.352-3.352V8.601A3.347 3.347 0 0 1 8.602 5.25Zm7.828 1.64a.676.676 0 0 0-.68.68c0 .378.302.68.68.68.378 0 .68-.302.68-.68a.676.676 0 0 0-.68-.68ZM12 7.5A4.512 4.512 0 0 0 7.5 12c0 2.475 2.024 4.5 4.5 4.5s4.5-2.025 4.5-4.5c0-2.476-2.024-4.5-4.5-4.5ZM12 9c1.667 0 3 1.333 3 3s-1.333 3-3 3-3-1.333-3-3 1.333-3 3-3Z"
  />
</svg>
