<svg
  xmlns="http://www.w3.org/2000/svg"
  width="24"
  height="24"
  fill="none"
  viewBox="0 0 24 24"
>
  <path
    fill="#2C2C2C"
    d="M6.812 3.75A3.073 3.073 0 0 0 3.75 6.81v10.377a3.073 3.073 0 0 0 3.062 3.062h10.377a3.073 3.073 0 0 0 3.061-3.062V6.811a3.073 3.073 0 0 0-3.061-3.061H6.812Zm0 1.5h10.377c.87 0 1.561.691 1.561 1.561v10.377c0 .87-.691 1.562-1.561 1.562H6.812c-.87 0-1.562-.692-1.562-1.562V6.811c0-.87.691-1.561 1.562-1.561Zm4.977 3.923c-.55-.006-1.02 0-1.283.129-.176.084-.31.278-.229.287.103.014.334.064.457.231.159.214.153.697.153.697s.088 1.33-.214 1.497c-.208.115-.492-.117-1.108-1.174-.313-.545-.55-1.146-.55-1.146s-.044-.111-.126-.17a.642.642 0 0 0-.238-.097l-1.467.01s-.22.008-.3.102c-.072.088-.005.26-.005.26s1.148 2.687 2.45 4.04C10.52 15.083 11.873 15 11.873 15h.615s.185-.02.279-.12c.087-.093.084-.269.084-.269s-.011-.823.37-.946c.378-.117.858.797 1.37 1.148.39.267.686.208.686.208L16.65 15s.715-.044.375-.61c-.026-.044-.196-.416-1.016-1.177-.861-.797-.747-.668.29-2.048.63-.841.882-1.354.803-1.576-.077-.208-.54-.153-.54-.153l-1.543.01s-.115-.016-.2.034c-.082.05-.134.167-.134.167s-.246.65-.572 1.204c-.685 1.166-.964 1.23-1.075 1.157-.26-.17-.196-.68-.196-1.04 0-1.133.173-1.602-.334-1.725-.167-.041-.29-.067-.718-.07Z"
  />
</svg>
