<svg
  xmlns="http://www.w3.org/2000/svg"
  width="24"
  height="24"
  fill="none"
  viewBox="0 0 24 24"
>
  <path
    fill="#202B21"
    d="M12 20.846c-.284 0-.559-.037-.788-.12-3.501-1.2-9.066-5.462-9.066-11.76 0-3.208 2.595-5.812 5.785-5.812 1.549 0 2.997.605 4.07 1.687a5.696 5.696 0 0 1 4.07-1.687c3.19 0 5.784 2.613 5.784 5.812 0 6.307-5.564 10.56-9.066 11.76-.23.083-.504.12-.788.12ZM7.93 4.529c-2.429 0-4.409 1.99-4.409 4.437 0 6.26 6.023 9.744 8.14 10.468.165.055.523.055.688 0 2.108-.724 8.14-4.198 8.14-10.468 0-2.448-1.98-4.437-4.41-4.437a4.356 4.356 0 0 0-3.52 1.779c-.256.348-.842.348-1.1 0a4.373 4.373 0 0 0-3.528-1.779Z"
  />
</svg>
