<svg
  xmlns="http://www.w3.org/2000/svg"
  width="24"
  height="24"
  fill="none"
  viewBox="0 0 24 24"
>
  <path
    fill="#202B21"
    d="M6.324 7.317a.64.64 0 0 1-.442-.183.629.629 0 0 1 0-.884l3.025-3.025a.629.629 0 0 1 .884 0 .629.629 0 0 1 0 .884L6.766 7.134a.655.655 0 0 1-.442.183Zm11.351 0a.618.618 0 0 1-.441-.183l-3.025-3.025a.629.629 0 0 1 0-.884.629.629 0 0 1 .883 0l3.025 3.025a.629.629 0 0 1 0 .884.639.639 0 0 1-.442.183Z"
  />
  <path
    fill="#202B21"
    d="M18.841 10.833H5.333c-.584.009-1.25.009-1.734-.475-.383-.375-.558-.958-.558-1.816 0-2.292 1.675-2.292 2.475-2.292h12.967c.8 0 2.475 0 2.475 2.292 0 .866-.175 1.441-.559 1.816-.433.434-1.016.475-1.558.475ZM5.516 9.583h13.158c.375.009.725.009.842-.108.058-.058.183-.258.183-.933 0-.942-.233-1.042-1.225-1.042H5.516c-.992 0-1.225.1-1.225 1.042 0 .675.133.875.183.933.117.108.475.108.842.108h.2Zm4.617 7.667a.63.63 0 0 1-.625-.625v-2.959a.63.63 0 0 1 .625-.625.63.63 0 0 1 .625.625v2.959c0 .35-.283.625-.625.625Zm3.834 0a.63.63 0 0 1-.625-.625v-2.959a.63.63 0 0 1 .625-.625.63.63 0 0 1 .625.625v2.959c0 .35-.284.625-.625.625Z"
  />
  <path
    fill="#202B21"
    d="M14.408 20.958H9.383c-2.983 0-3.65-1.775-3.908-3.316L4.3 10.433a.623.623 0 0 1 .517-.717.623.623 0 0 1 .716.517l1.175 7.2c.242 1.475.742 2.275 2.675 2.275h5.025c2.142 0 2.384-.75 2.659-2.2l1.4-7.291a.614.614 0 0 1 .733-.492.62.62 0 0 1 .492.733l-1.4 7.292c-.325 1.692-.867 3.208-3.884 3.208Z"
  />
</svg>
